<?xml version="1.0" ?><svg width="20px" height="20px" viewBox="0 -0.08 20 20" data-name="Capa 1" id="Capa_1" xmlns="http://www.w3.org/2000/svg"><path d="M14.51,12.15a.38.38,0,1,0-.75,0V13a.71.71,0,0,1-.71.71h-.72a.38.38,0,1,0,0,.75h.72v.22A1.69,1.69,0,0,0,14.73,13h-.22Z"/><path d="M13.05,6.16a.71.71,0,0,1,.71.72v.75a.38.38,0,1,0,.75,0V6.88h.22a1.69,1.69,0,0,0-1.68-1.69v.22h-.9a.38.38,0,1,0,0,.75Z"/><path d="M7.66,5.41H7V5.19A1.69,1.69,0,0,0,5.27,6.88h.22v.75a.38.38,0,1,0,.75,0V6.88A.71.71,0,0,1,7,6.16h.71a.38.38,0,0,0,0-.75Z"/><path d="M7.66,13.68H7A.71.71,0,0,1,6.24,13V12a.38.38,0,0,0-.75,0V13H5.27A1.69,1.69,0,0,0,7,14.65v-.22h.71a.38.38,0,0,0,0-.75Z"/></svg>